PathFileType	4	(X/Y/Z)	Patient4_TMGait_0pt5_01_right_05.trc.trc
DataRate	CameraRate	NumFrames	NumMarkers	Units	OrigDataRate	OrigDataStartFrame	OrigNumFrames
74.468085106383	74.468085106383	4	33	mm	74.468085106383	1	       141
Frame#	Time	L.ASIS			Sacral			L.Shoulder			Chest			R.Shoulder			Neck			R.ASIS			R.Thigh.Superior			R.Thigh.Lateral			R.Thigh.Inferior			R.Patella			L.Thigh.Superior			L.Thigh.Lateral			L.Thigh.Inferior			L.Patella			L.Shank.Superior			L.Shank.Lateral			L.Shank.Inferior			R.Shank.Superior			R.Shank.Lateral			R.Shank.Inferior			R.Heel			R.Midfoot.Superior			R.Midfoot.Lateral			R.Toe			L.Heel			L.Midfoot.Lateral			L.Midfoot.Superior			L.Toe			L.Elbow			L.Wrist			R.Elbow			R.Wrist			
		X1	Y1	Z1	X2	Y2	Z2	X3	Y3	Z3	X4	Y4	Z4	X5	Y5	Z5	X6	Y6	Z6	X7	Y7	Z7	X8	Y8	Z8	X9	Y9	Z9	X10	Y10	Z10	X11	Y11	Z11	X12	Y12	Z12	X13	Y13	Z13	X14	Y14	Z14	X15	Y15	Z15	X16	Y16	Z16	X17	Y17	Z17	X18	Y18	Z18	X19	Y19	Z19	X20	Y20	Z20	X21	Y21	Z21	X22	Y22	Z22	X23	Y23	Z23	X24	Y24	Z24	X25	Y25	Z25	X26	Y26	Z26	X27	Y27	Z27	X28	Y28	Z28	X29	Y29	Z29	X30	Y30	Z30	X31	Y31	Z31	X32	Y32	Z32	X33	Y33	Z33	

1	5.970000000000	722.877084942637	965.662425372828	298.491667863928	510.894462876915	1003.121189476109	465.461477696785	680.529074912952	1440.841313292158	293.171035475205	785.124307808835	1363.679879765873	449.909163668647	703.410890302125	1431.689356472056	628.081361675870	685.377796880644	1496.239451069151	445.223199853143	744.242167330327	939.796418322928	572.787582572913	823.918907760750	768.038697736177	539.740073965109	783.887227231108	648.245672898235	612.624039378449	871.002047824061	607.177793819224	530.159986408995	886.297013795189	490.856149146134	550.758624066877	777.035214837685	753.800067181866	330.267285207014	689.120226857080	634.959897813833	279.975631271532	772.493094304006	559.734475647676	346.776878290812	773.033246108499	489.176899664371	361.336152818860	746.746937868471	416.270093072593	354.599308037365	661.177179595914	301.155459272163	301.451522124895	703.188034499332	192.495641954951	380.010835801600	803.935775951926	421.415483974520	561.348554307951	681.103614661161	394.102895383243	625.586318163698	654.404280075739	286.788357589431	579.471684863357	450.651680296533	256.336594663818	555.802375695620	604.775195695886	164.994373190377	595.231919286107	496.237806463825	184.207883434341	627.995550347041	646.079818981772	41.138579854998	620.101694591964	568.135961461311	37.740980006858	415.623118476056	647.128792803005	35.170839837783	339.498995568111	729.359180983268	95.628739838477	371.025501191811	858.897812670518	40.992192668778	351.194398289122	630.535645001916	1103.176265529226	144.081404467791	801.827591797457	905.487316518875	141.110732913762	650.722615554058	1088.458445190924	743.766510216796	717.162893388049	839.329697333228	783.512582165978	
2	5.983428571429	722.339162995208	966.106044370659	298.803782072405	509.637782124572	1003.998762656052	464.506249257778	681.233294592334	1441.628024201624	292.690449785917	784.288906704619	1364.496087287044	450.364726071450	701.143716350356	1432.746345692457	627.752705852861	684.761205451296	1497.024498676846	444.725478822843	742.247026142890	941.229069078713	573.195301603932	824.322993423289	772.512282567018	539.523948748672	787.266062256430	652.092485456822	612.787697565533	874.692690099258	612.736204647307	529.902940730259	892.898971230304	497.208870910622	550.666545989063	773.868258624870	752.998287148783	331.234972273400	684.762957387272	635.331293157975	280.074968371917	766.605789943741	559.102883021329	347.289987972671	765.970041215019	488.710731288075	361.938077109836	739.970549087838	416.247923951813	354.798059431222	654.338235455586	301.237221061364	301.459464685824	696.113645650512	192.545617559705	380.112299161778	813.231303471072	425.354660989225	561.012075291749	691.769806887822	392.951299742608	624.884563015209	669.678317779675	284.836848147458	578.356572042959	467.541863550520	245.227609464385	554.457250383790	625.397236851572	161.630093505791	593.568597757643	516.481414828199	175.457278293595	626.427028563400	672.647447226512	40.268770570531	618.227326166048	560.866775505734	37.736827247648	415.593490111673	639.946111385002	35.194603511541	339.453094956558	722.192960012696	95.680374961367	370.993787689224	851.708101631815	41.002940357485	351.192697685914	633.728941546922	1104.029746901294	142.871434870642	807.532028460829	908.703465177176	141.177650377900	639.545674533183	1091.806216965622	743.337574521364	696.011412256344	840.527810808520	780.878173078163	
3	5.996857142857	721.808204661784	966.513443915492	299.163601740415	508.397592725970	1004.840160809977	463.586855056568	681.937227098717	1442.369555117908	292.227979404003	783.460999253560	1365.279077280491	450.837775956444	698.894147276068	1433.777797125810	627.439158190481	684.139589193736	1497.781475190945	444.248542218088	740.251005701202	942.612396733043	573.646931523385	824.653841716373	776.867287687352	539.374201177817	790.511037354798	655.833639974975	612.997822561966	878.191416111950	618.124169931176	529.681334661080	899.246816423449	503.446163640253	550.628668379037	770.708852656497	752.188974566093	332.243472156161	680.419328293945	635.694822909511	280.180128104058	760.716518502859	558.468157163187	347.814894347088	758.916976356981	488.256117427869	362.536137729827	733.202420532207	416.218668748652	354.998327871603	647.514474366877	301.312389340336	301.473589796746	689.063059210663	192.591290222003	380.217582617228	822.350590750518	429.163681004285	560.741532005203	702.362953578809	391.557997145986	624.279554015615	684.983472183106	282.680868490444	577.347821722006	484.616910287017	233.730244157008	553.251080084790	646.184119005702	158.098244022801	592.039267073659	536.952017024613	166.441825889864	625.017765544197	699.463693375963	39.369966721424	616.516871277825	553.645700314090	37.725151132736	415.565004037891	632.800356240509	35.212421374831	339.412147464250	715.059869192617	95.729440456196	370.967339498086	844.556815147931	41.020828726581	351.193773445634	636.883447251829	1104.841154083787	141.687606486039	813.165700243971	911.865915233296	141.325612326218	628.404574036501	1095.143013819494	742.799361536722	675.114934416355	841.826482970249	778.213972977168	
4	6.010285714286	721.291059713171	966.848519527596	299.613077003671	507.190631980872	1005.606956981362	462.740336022838	682.637926892690	1443.013840238944	291.810576373586	782.653857154237	1365.986767209572	451.348255696665	696.702000518406	1434.749037275643	627.166979552668	683.519133600566	1498.472452406794	443.818495930900	738.266323250420	943.883428612768	574.180385261098	824.810147010242	780.923944482738	539.359840087955	793.415724498098	659.316162470408	613.314043276634	881.249028301062	623.110180280312	529.554711035441	905.022710192385	509.402502378010	550.705257655631	767.575758295897	751.364483074109	333.316763525522	676.118585786339	636.039668462749	280.292602805202	754.847460698436	557.828703370123	348.355729176922	751.913790620013	487.820875757904	363.119222202891	726.475390695572	416.175457367263	355.196925554370	640.739628109794	301.374372797375	301.495819568661	682.074221469949	192.627289487751	380.328537663609	831.054580254872	432.709330262333	560.611401562851	712.793771418592	389.726488689868	623.880896966337	700.315049905813	280.204108236304	576.554915519717	502.098232084623	221.616913145004	552.319780165892	667.253614474843	154.357649338033	590.773343131554	557.870954143245	157.049572091853	623.915260645178	726.670889905859	38.557358637025	615.112626594166	546.523590019079	37.701447769200	415.539253661905	625.735881019929	35.220287022717	339.380176118929	708.001883431328	95.772716288521	370.950790275582	837.489167199066	41.052238420419	351.199847355097	639.959026213575	1105.555071282405	140.577718111977	818.650652084644	914.903302912763	141.643933480752	617.421963072294	1098.423375856448	742.063718861246	654.825208794023	843.281793033765	775.491799336687	
